<svg xmlns="http://www.w3.org/2000/svg" xmlns:xlink="http://www.w3.org/1999/xlink" width="1040" height="711.3"><rect width="1040" height="711.3" rx="5" ry="5" class="a"/><svg y="0%" x="0%"><circle cx="20" cy="20" r="6" fill="#ff5f58"/><circle cx="40" cy="20" r="6" fill="#ffbd2e"/><circle cx="60" cy="20" r="6" fill="#18c132"/></svg><svg height="651.3" viewBox="0 0 100 65.13" width="1000" x="15" xmlns="http://www.w3.org/2000/svg" xmlns:xlink="http://www.w3.org/1999/xlink" y="50"><style>@keyframes r{0%{transform:translateX(0)}7%{transform:translateX(-100px)}8.2%{transform:translateX(-200px)}8.3%{transform:translateX(-300px)}17.1%{transform:translateX(-400px)}19.5%{transform:translateX(-500px)}20.6%{transform:translateX(-600px)}21.7%{transform:translateX(-700px)}22.8%{transform:translateX(-800px)}27.8%{transform:translateX(-900px)}31.4%{transform:translateX(-1000px)}48.2%{transform:translateX(-1300px)}49.9%{transform:translateX(-1400px)}62.7%{transform:translateX(-1700px)}62.8%{transform:translateX(-2100px)}64%{transform:translateX(-2300px)}to{transform:translateX(-2400px)}}.a{fill:#282d35}.f{fill:#b9c0cb}.h{fill:#71bef2}.j{fill:#dbab79}.k{fill:#e88388}.m{fill:#a8cc8c}.o{fill:#d290e4;font-weight:700}</style><g font-size="1.67" font-family="Monaco,Consolas,Menlo,'Bitstream Vera Sans Mono','Powerline Symbols',monospace"><defs><symbol id="1"><path class="f" d="M0 0h1v2.171H0z"/><text y="1.67" fill="#282d35" font-weight="700">%</text></symbol><symbol id="2">0<text y="1.67" class="f"></text><path class="h" d="M1.002 0h23v2.171h-23z"/><text x="1.002" y="1.67" class="i"> ~/node-modules-check</text><path class="j" d="M24.048 0h1v2.171h-1z"/><text x="24.048" y="1.67" class="h"></text><path class="j" d="M25.05 0h12v2.171h-12z"/><text x="25.05" y="1.67" class="i"> master ●</text><text x="37.074" y="1.67" class="j"></text></symbol><symbol id="3">0<text y="1.67" class="f"></text><path class="h" d="M1.002 0h23v2.171h-23z"/><text x="1.002" y="1.67" class="i"> ~/node-modules-check</text><path class="j" d="M24.048 0h1v2.171h-1z"/><text x="24.048" y="1.67" class="h"></text><path class="j" d="M25.05 0h12v2.171h-12z"/><text x="25.05" y="1.67" class="i"> master ●</text><text x="37.074" y="1.67" class="j"></text><text x="39.078" y="1.67" class="f">./bin/check.js</text></symbol><symbol id="4"><text y="1.67" class="f">searching</text><text x="10.02" y="1.67" class="f">for</text><text x="14.028" y="1.67" class="f">node</text><text x="19.038" y="1.67" class="f">module</text><text x="26.052" y="1.67" class="f">updates…</text></symbol><symbol id="5"><text y="1.67" class="f">◉</text><text x="3.006" y="1.67" class="f">Package</text><text x="12.024" y="1.67" class="f">Current</text><text x="21.042" y="1.67" class="f">Latest</text><text x="29.058" y="1.67" class="f">Type</text><text x="46.092" y="1.67" class="f">Homepage</text></symbol><symbol id="6"><text y="1.67" class="f">-</text><text x="3.006" y="1.67" class="f">-------</text><text x="12.024" y="1.67" class="f">-------</text><text x="21.042" y="1.67" class="f">------</text><text x="29.058" y="1.67" class="f">---------------</text><text x="46.092" y="1.67" class="f">--------------------------------------------</text></symbol><symbol id="7"><text y="1.67" class="k">◉</text><text x="3.006" y="1.67" class="f">boxen</text><text x="12.024" y="1.67" class="f">3.1.0</text><text x="21.042" y="1.67" class="f">4.0.0</text><text x="29.058" y="1.67" class="f">dependencies</text><text x="46.092" y="1.67" class="f">https://github.com/sindresorhus/boxen#readme</text></symbol><symbol id="8"><text y="1.67" class="k">◉</text><text x="3.006" y="1.67" class="f">husky</text><text x="12.024" y="1.67" class="f">1.3.1</text><text x="21.042" y="1.67" class="f">2.3.0</text><text x="29.058" y="1.67" class="f">devDependencies</text><text x="46.092" y="1.67" class="f">https://github.com/typicode/husky#readme</text></symbol><symbol id="9"><text y="1.67" class="j">◉</text><text x="3.006" y="1.67" class="f">semver</text><text x="12.024" y="1.67" class="f">6.0.0</text><text x="21.042" y="1.67" class="f">6.1.1</text><text x="29.058" y="1.67" class="f">dependencies</text><text x="46.092" y="1.67" class="f">https://github.com/npm/node-semver#readme</text></symbol><symbol id="10"><text y="1.67" class="h">◉</text><text x="3.006" y="1.67" class="f">yargs</text><text x="12.024" y="1.67" class="f">13.2.2</text><text x="21.042" y="1.67" class="f">13.2.4</text><text x="29.058" y="1.67" class="f">dependencies</text><text x="46.092" y="1.67" class="f">https://yargs.js.org/</text></symbol><symbol id="11"><text y="1.67" class="k">major</text><text x="6.012" y="1.67" class="f">|</text><text x="8.016" y="1.67" class="j">minor</text><text x="14.028" y="1.67" class="f">|</text><text x="16.032" y="1.67" class="h">patch</text><text x="22.044" y="1.67" class="f">|</text><text x="24.048" y="1.67" fill="#d290e4">prerelease</text><text x="35.07" y="1.67" class="f">|</text><text x="37.074" y="1.67" class="m">premajor</text><text x="46.092" y="1.67" class="f">|</text><text x="48.096" y="1.67" fill="#66c2cd" font-weight="700">preminor</text></symbol><symbol id="12"><text x="3.006" y="1.67" class="m">╭────────────────────────────────────────────────────────────────────────────╮</text></symbol><symbol id="13"><text x="3.006" y="1.67" class="m">│</text><text x="80.16" y="1.67" class="m">│</text></symbol><symbol id="14"><text x="3.006" y="1.67" class="m">│</text><text x="7.014" y="1.67" class="f">If</text><text x="10.02" y="1.67" class="f">you</text><text x="14.028" y="1.67" class="f">want</text><text x="19.038" y="1.67" class="f">to</text><text x="22.044" y="1.67" class="f">upgrade</text><text x="30.06" y="1.67" class="f">all</text><text x="34.068" y="1.67" class="f">packages</text><text x="43.086" y="1.67" class="f">to</text><text x="46.092" y="1.67" class="f">the</text><text x="50.1" y="1.67" class="f">latest</text><text x="57.114" y="1.67" class="f">version,</text><text x="66.132" y="1.67" class="f">please</text><text x="73.146" y="1.67" class="f">run:</text><text x="80.16" y="1.67" class="m">│</text></symbol><symbol id="15"><text x="3.006" y="1.67" class="m">│</text><text x="7.014" y="1.67" class="o">npm</text><text x="11.022" y="1.67" class="o">install</text><text x="19.038" y="1.67" class="o">boxen@latest</text><text x="32.064" y="1.67" class="o">husky@latest</text><text x="45.09" y="1.67" class="o">semver@latest</text><text x="59.118" y="1.67" class="o">yargs@latest</text><text x="80.16" y="1.67" class="m">│</text></symbol><symbol id="16"><text x="3.006" y="1.67" class="m">│</text><text x="7.014" y="1.67" class="f">This</text><text x="12.024" y="1.67" class="f">will</text><text x="17.034" y="1.67" class="f">update</text><text x="24.048" y="1.67" class="f">your</text><text x="29.058" y="1.67" class="f">package.json</text><text x="42.084" y="1.67" class="f">and</text><text x="46.092" y="1.67" class="f">install</text><text x="54.108" y="1.67" class="f">the</text><text x="58.116" y="1.67" class="f">latest</text><text x="65.13" y="1.67" class="f">version.</text><text x="80.16" y="1.67" class="m">│</text></symbol><symbol id="17"><text x="3.006" y="1.67" class="m">╰────────────────────────────────────────────────────────────────────────────╯</text></symbol><symbol id="18">0<text y="1.67" class="f"></text>0<text x="1.002" y="1.67" class="k">✘</text>0<text x="2.004" y="1.67" class="f"></text><path class="h" d="M3.006 0h23v2.171h-23z"/><text x="3.006" y="1.67" class="i"> ~/node-modules-check</text><path class="j" d="M26.052 0h1v2.171h-1z"/><text x="26.052" y="1.67" class="h"></text><path class="j" d="M27.054 0h12v2.171h-12z"/><text x="27.054" y="1.67" class="i"> master ●</text><text x="39.078" y="1.67" class="j"></text></symbol><symbol id="a"><path fill="transparent" d="M0 0h100v31H0z"/></symbol><symbol id="b"><path fill="#6f7683" d="M0 0h1.102v2.171H0z"/></symbol></defs><path class="a" d="M0 0h100v65.13H0z"/><g style="animation-duration:15.088253s;animation-iteration-count:infinite;animation-name:r;animation-timing-function:steps(1,end)"><svg width="2500"><svg><use xlink:href="#a"/><use xlink:href="#b" x="-.004"/></svg><svg x="100"><use xlink:href="#a"/><use xlink:href="#b" x="-.004" y="2.146"/><use xlink:href="#1"/></svg><svg x="200"><use xlink:href="#a"/><use xlink:href="#b" x="38.996" y="2.146"/><use xlink:href="#1"/><use xlink:href="#2" y="2.171"/></svg><svg x="300"><use xlink:href="#a"/><use xlink:href="#b" x="38.996" y="2.146"/><use xlink:href="#1"/><use xlink:href="#2" y="2.171"/></svg><svg x="400"><use xlink:href="#a"/><use xlink:href="#b" x="39.996" y="2.146"/><use xlink:href="#1"/>0<text y="3.841" class="f"></text><path class="h" d="M1.002 2.171h23v2.171h-23z"/><text x="1.002" y="3.841" class="i"> ~/node-modules-check</text><path class="j" d="M24.048 2.171h1v2.171h-1z"/><text x="24.048" y="3.841" class="h"></text><path class="j" d="M25.05 2.171h12v2.171h-12z"/><text x="25.05" y="3.841" class="i"> master ●</text><text x="37.074" y="3.841" class="j"></text><text x="39.078" y="3.841" class="f">.</text></svg><svg x="500"><use xlink:href="#a"/><use xlink:href="#b" x="40.996" y="2.146"/><use xlink:href="#1"/>0<text y="3.841" class="f"></text><path class="h" d="M1.002 2.171h23v2.171h-23z"/><text x="1.002" y="3.841" class="i"> ~/node-modules-check</text><path class="j" d="M24.048 2.171h1v2.171h-1z"/><text x="24.048" y="3.841" class="h"></text><path class="j" d="M25.05 2.171h12v2.171h-12z"/><text x="25.05" y="3.841" class="i"> master ●</text><text x="37.074" y="3.841" class="j"></text><text x="39.078" y="3.841" class="f">./</text></svg><svg x="600"><use xlink:href="#a"/><use xlink:href="#b" x="41.996" y="2.146"/><use xlink:href="#1"/>0<text y="3.841" class="f"></text><path class="h" d="M1.002 2.171h23v2.171h-23z"/><text x="1.002" y="3.841" class="i"> ~/node-modules-check</text><path class="j" d="M24.048 2.171h1v2.171h-1z"/><text x="24.048" y="3.841" class="h"></text><path class="j" d="M25.05 2.171h12v2.171h-12z"/><text x="25.05" y="3.841" class="i"> master ●</text><text x="37.074" y="3.841" class="j"></text><text x="39.078" y="3.841" class="f">./b</text></svg><svg x="700"><use xlink:href="#a"/><use xlink:href="#b" x="42.996" y="2.146"/><use xlink:href="#1"/>0<text y="3.841" class="f"></text><path class="h" d="M1.002 2.171h23v2.171h-23z"/><text x="1.002" y="3.841" class="i"> ~/node-modules-check</text><path class="j" d="M24.048 2.171h1v2.171h-1z"/><text x="24.048" y="3.841" class="h"></text><path class="j" d="M25.05 2.171h12v2.171h-12z"/><text x="25.05" y="3.841" class="i"> master ●</text><text x="37.074" y="3.841" class="j"></text><text x="39.078" y="3.841" class="f">./bi</text></svg><svg x="800"><use xlink:href="#a"/><use xlink:href="#b" x="44.996" y="2.146"/><use xlink:href="#1"/>0<text y="3.841" class="f"></text><path class="h" d="M1.002 2.171h23v2.171h-23z"/><text x="1.002" y="3.841" class="i"> ~/node-modules-check</text><path class="j" d="M24.048 2.171h1v2.171h-1z"/><text x="24.048" y="3.841" class="h"></text><path class="j" d="M25.05 2.171h12v2.171h-12z"/><text x="25.05" y="3.841" class="i"> master ●</text><text x="37.074" y="3.841" class="j"></text><text x="39.078" y="3.841" class="f">./bin</text><text x="44.088" y="3.841" fill="#b9c0cb" font-weight="700">/</text></svg><svg x="900"><use xlink:href="#a"/><use xlink:href="#b" x="45.996" y="2.146"/><use xlink:href="#1"/>0<text y="3.841" class="f"></text><path class="h" d="M1.002 2.171h23v2.171h-23z"/><text x="1.002" y="3.841" class="i"> ~/node-modules-check</text><path class="j" d="M24.048 2.171h1v2.171h-1z"/><text x="24.048" y="3.841" class="h"></text><path class="j" d="M25.05 2.171h12v2.171h-12z"/><text x="25.05" y="3.841" class="i"> master ●</text><text x="37.074" y="3.841" class="j"></text><text x="39.078" y="3.841" class="f">./bin/c</text></svg><svg x="1000"><use xlink:href="#a"/><use xlink:href="#b" x="53.996" y="2.146"/><use xlink:href="#1"/><use xlink:href="#3" y="2.171"/></svg><svg x="1100"><use xlink:href="#a"/><use xlink:href="#b" x="52.996" y="2.146"/><use xlink:href="#1"/><use xlink:href="#3" y="2.171"/></svg><svg x="1200"><use xlink:href="#a"/><use xlink:href="#b" x="-.004" y="4.317"/><use xlink:href="#1"/><use xlink:href="#3" y="2.171"/></svg><svg x="1300"><use xlink:href="#a"/><use xlink:href="#b" x="-.004" y="4.317"/><use xlink:href="#1"/><use xlink:href="#3" y="2.171"/></svg><svg x="1400"><use xlink:href="#a"/><use xlink:href="#b" x="-.004" y="6.488"/><use xlink:href="#1"/><use xlink:href="#3" y="2.171"/><use xlink:href="#4" y="4.342"/></svg><svg x="1500"><use xlink:href="#a"/><use xlink:href="#b" x="-.004" y="8.659"/><use xlink:href="#1"/><use xlink:href="#3" y="2.171"/><use xlink:href="#4" y="4.342"/></svg><svg x="1600"><use xlink:href="#a"/><use xlink:href="#b" x="-.004" y="23.856"/><use xlink:href="#1"/><use xlink:href="#3" y="2.171"/><use xlink:href="#4" y="4.342"/><use xlink:href="#5" y="8.684"/><use xlink:href="#6" y="10.855"/><use xlink:href="#7" y="13.026"/><use xlink:href="#8" y="15.197"/><use xlink:href="#9" y="17.368"/><use xlink:href="#10" y="19.539"/></svg><svg x="1700"><use xlink:href="#a"/><use xlink:href="#b" x="-.004" y="28.198"/><use xlink:href="#1"/><use xlink:href="#3" y="2.171"/><use xlink:href="#4" y="4.342"/><use xlink:href="#5" y="8.684"/><use xlink:href="#6" y="10.855"/><use xlink:href="#7" y="13.026"/><use xlink:href="#8" y="15.197"/><use xlink:href="#9" y="17.368"/><use xlink:href="#10" y="19.539"/><use xlink:href="#11" y="23.881"/></svg><svg x="1800"><use xlink:href="#a"/><use xlink:href="#b" x="33.996" y="45.566"/><use xlink:href="#1"/><use xlink:href="#3" y="2.171"/><use xlink:href="#4" y="4.342"/><use xlink:href="#5" y="8.684"/><use xlink:href="#6" y="10.855"/><use xlink:href="#7" y="13.026"/><use xlink:href="#8" y="15.197"/><use xlink:href="#9" y="17.368"/><use xlink:href="#10" y="19.539"/><use xlink:href="#11" y="23.881"/><use xlink:href="#12" y="30.394"/><use xlink:href="#13" y="32.565"/><use xlink:href="#14" y="34.736"/><use xlink:href="#15" y="36.907"/><use xlink:href="#13" y="39.078"/><use xlink:href="#16" y="41.249"/><use xlink:href="#13" y="43.42"/><text x="3.006" y="47.261" class="m">╰──────────────────────────────</text></svg><svg x="1900"><use xlink:href="#a"/><use xlink:href="#b" x="-.004" y="49.908"/><use xlink:href="#1"/><use xlink:href="#3" y="2.171"/><use xlink:href="#4" y="4.342"/><use xlink:href="#5" y="8.684"/><use xlink:href="#6" y="10.855"/><use xlink:href="#7" y="13.026"/><use xlink:href="#8" y="15.197"/><use xlink:href="#9" y="17.368"/><use xlink:href="#10" y="19.539"/><use xlink:href="#11" y="23.881"/><use xlink:href="#12" y="30.394"/><use xlink:href="#13" y="32.565"/><use xlink:href="#14" y="34.736"/><use xlink:href="#15" y="36.907"/><use xlink:href="#13" y="39.078"/><use xlink:href="#16" y="41.249"/><use xlink:href="#13" y="43.42"/><use xlink:href="#17" y="45.591"/></svg><svg x="2000"><use xlink:href="#a"/><use xlink:href="#b" x="-.004" y="52.079"/><use xlink:href="#1"/><use xlink:href="#3" y="2.171"/><use xlink:href="#4" y="4.342"/><use xlink:href="#5" y="8.684"/><use xlink:href="#6" y="10.855"/><use xlink:href="#7" y="13.026"/><use xlink:href="#8" y="15.197"/><use xlink:href="#9" y="17.368"/><use xlink:href="#10" y="19.539"/><use xlink:href="#11" y="23.881"/><use xlink:href="#12" y="30.394"/><use xlink:href="#13" y="32.565"/><use xlink:href="#14" y="34.736"/><use xlink:href="#15" y="36.907"/><use xlink:href="#13" y="39.078"/><use xlink:href="#16" y="41.249"/><use xlink:href="#13" y="43.42"/><use xlink:href="#17" y="45.591"/><use xlink:href="#1" y="49.933"/></svg><svg x="2100"><use xlink:href="#a"/><use xlink:href="#b" x="-.004" y="52.079"/><use xlink:href="#1"/><use xlink:href="#3" y="2.171"/><use xlink:href="#4" y="4.342"/><use xlink:href="#5" y="8.684"/><use xlink:href="#6" y="10.855"/><use xlink:href="#7" y="13.026"/><use xlink:href="#8" y="15.197"/><use xlink:href="#9" y="17.368"/><use xlink:href="#10" y="19.539"/><use xlink:href="#11" y="23.881"/><use xlink:href="#12" y="30.394"/><use xlink:href="#13" y="32.565"/><use xlink:href="#14" y="34.736"/><use xlink:href="#15" y="36.907"/><use xlink:href="#13" y="39.078"/><use xlink:href="#16" y="41.249"/><use xlink:href="#13" y="43.42"/><use xlink:href="#17" y="45.591"/><use xlink:href="#1" y="49.933"/></svg><svg x="2200"><use xlink:href="#a"/><use xlink:href="#b" x="40.996" y="52.079"/><use xlink:href="#1"/><use xlink:href="#3" y="2.171"/><use xlink:href="#4" y="4.342"/><use xlink:href="#5" y="8.684"/><use xlink:href="#6" y="10.855"/><use xlink:href="#7" y="13.026"/><use xlink:href="#8" y="15.197"/><use xlink:href="#9" y="17.368"/><use xlink:href="#10" y="19.539"/><use xlink:href="#11" y="23.881"/><use xlink:href="#12" y="30.394"/><use xlink:href="#13" y="32.565"/><use xlink:href="#14" y="34.736"/><use xlink:href="#15" y="36.907"/><use xlink:href="#13" y="39.078"/><use xlink:href="#16" y="41.249"/><use xlink:href="#13" y="43.42"/><use xlink:href="#17" y="45.591"/><use xlink:href="#1" y="49.933"/><use xlink:href="#18" y="52.104"/></svg><svg x="2300"><use xlink:href="#a"/><use xlink:href="#b" x="40.996" y="52.079"/><use xlink:href="#1"/><use xlink:href="#3" y="2.171"/><use xlink:href="#4" y="4.342"/><use xlink:href="#5" y="8.684"/><use xlink:href="#6" y="10.855"/><use xlink:href="#7" y="13.026"/><use xlink:href="#8" y="15.197"/><use xlink:href="#9" y="17.368"/><use xlink:href="#10" y="19.539"/><use xlink:href="#11" y="23.881"/><use xlink:href="#12" y="30.394"/><use xlink:href="#13" y="32.565"/><use xlink:href="#14" y="34.736"/><use xlink:href="#15" y="36.907"/><use xlink:href="#13" y="39.078"/><use xlink:href="#16" y="41.249"/><use xlink:href="#13" y="43.42"/><use xlink:href="#17" y="45.591"/><use xlink:href="#1" y="49.933"/><use xlink:href="#18" y="52.104"/></svg><svg x="2400"><use xlink:href="#a"/><use xlink:href="#b" x="-.004" y="54.25"/><use xlink:href="#1"/><use xlink:href="#3" y="2.171"/><use xlink:href="#4" y="4.342"/><use xlink:href="#5" y="8.684"/><use xlink:href="#6" y="10.855"/><use xlink:href="#7" y="13.026"/><use xlink:href="#8" y="15.197"/><use xlink:href="#9" y="17.368"/><use xlink:href="#10" y="19.539"/><use xlink:href="#11" y="23.881"/><use xlink:href="#12" y="30.394"/><use xlink:href="#13" y="32.565"/><use xlink:href="#14" y="34.736"/><use xlink:href="#15" y="36.907"/><use xlink:href="#13" y="39.078"/><use xlink:href="#16" y="41.249"/><use xlink:href="#13" y="43.42"/><use xlink:href="#17" y="45.591"/><use xlink:href="#1" y="49.933"/><use xlink:href="#18" y="52.104"/></svg></svg></g></g></svg></svg>